# xmcd
#
# Track frame offsets:
#	150
#	13032
#	28985
#	44885
#	60575
#	76480
#	95410
#	107830
#	123505
#	140887
#
# Disc length: 2084 seconds
#
# Revision: 0
# Processed by: cddbd v1.5.1PL2 Copyright (c) Steve Scherf et al.
# Submitted via: dBpowerAMP V4.0
#
DISCID=9208220a
DTITLE=Branson Bros. - Heartmender
DYEAR=1900
DGENRE=
TTITLE0=I Make The Livin' (She Makes The Livin' Worthwile)
TTITLE1=You Go Your Way (And I'll Go Crazy)
TTITLE2=The Only Explanation
TTITLE3=Southern Breeze
TTITLE4=Heartmender
TTITLE5=Have A Good Life
TTITLE6=Every Day It's Gettin' Harder To Keep Your Memory Alive
TTITLE7=Go Easy On Me
TTITLE8=Bye Bye
TTITLE9=I Didn't, I Don't And I Still Do
EXTD=
EXTT0=
EXTT1=
EXTT2=
EXTT3=
EXTT4=
EXTT5=
EXTT6=
EXTT7=
EXTT8=
EXTT9=
PLAYORDER=
